<?xml version="1.0" standalone="no"?>
<!DOCTYPE svg PUBLIC "-//W3C//DTD SVG 20010904//EN"
 "http://www.w3.org/TR/2001/REC-SVG-20010904/DTD/svg10.dtd">
<svg version="1.0" xmlns="http://www.w3.org/2000/svg"
 width="180.000000pt" height="190.000000pt" viewBox="0 0 180.000000 190.000000"
 preserveAspectRatio="xMidYMid meet">
<metadata>
Created by potrace 1.16, written by Peter Selinger 2001-2019
</metadata>
<g transform="translate(0.000000,190.000000) scale(0.100000,-0.100000)"
fill="#000000" stroke="none">
<path d="M90 1800 c0 -16 7 -159 15 -317 8 -158 21 -416 29 -573 17 -340 26
-377 131 -525 136 -192 348 -300 631 -321 221 -16 433 60 597 215 81 76 139
158 174 244 30 73 37 155 58 677 8 206 17 432 21 503 l6 127 -831 0 -831 0 0
-30z m124 -16 c3 -9 6 -24 6 -35 0 -32 17 -21 24 16 6 31 11 35 37 35 l30 0
-3 -77 c-3 -65 -6 -78 -20 -81 -15 -3 -18 4 -19 40 l-1 43 -12 -40 c-17 -58
-41 -58 -54 2 l-10 48 -1 -48 c-1 -40 -4 -48 -18 -45 -15 3 -19 16 -21 67 -2
35 -1 70 2 77 7 19 53 18 60 -2z m227 -3 c18 -14 24 -29 24 -59 0 -50 -27 -82
-68 -82 -45 0 -67 25 -67 77 0 73 58 107 111 64z m85 11 c6 -4 20 -23 30 -42
l19 -35 3 43 c3 34 7 43 20 40 14 -3 18 -17 20 -81 3 -75 2 -77 -21 -77 -17 0
-29 10 -42 38 l-20 37 -3 -37 c-2 -30 -7 -38 -23 -38 -17 0 -19 7 -19 80 0 80
6 92 36 72z m494 -17 c0 -16 6 -25 15 -25 8 0 18 0 23 0 4 0 7 10 7 23 0 15 7
23 23 25 22 3 23 2 20 -75 -3 -70 -5 -78 -23 -78 -15 0 -20 7 -20 28 1 22 -4
27 -22 27 -19 0 -23 -5 -23 -30 0 -23 -4 -30 -20 -30 -18 0 -20 7 -20 80 0 73
2 80 20 80 15 0 20 -7 20 -25z m230 5 c13 -13 20 -33 20 -60 0 -75 -76 -109
-119 -54 -59 75 33 180 99 114z m154 4 c20 -20 20 -38 0 -58 -14 -14 -14 -18
0 -38 22 -30 20 -48 -4 -48 -12 0 -26 13 -37 33 l-17 32 -6 -30 c-4 -21 -12
-31 -28 -33 -21 -3 -22 0 -22 71 0 40 3 77 7 80 13 14 92 7 107 -9z m282 -24
c0 -19 4 -43 9 -54 15 -33 -7 -51 -69 -54 l-56 -3 0 53 c0 93 5 99 64 96 51
-3 51 -3 52 -38z m-28 -176 c15 -10 22 -25 22 -49 0 -61 -79 -87 -134 -44 -52
41 -20 109 52 109 21 0 48 -7 60 -16z m-190 -127 c3 -115 2 -117 -17 -105 -17
10 -28 9 -66 -10 -58 -28 -63 -28 -75 3 -12 31 -37 42 -61 27 -10 -7 -25 -9
-33 -6 -10 4 -16 -2 -18 -17 -3 -26 -121 -126 -126 -109 -2 5 -13 10 -25 9
-21 0 -21 -1 -2 -9 17 -7 12 -11 -35 -34 -30 -14 -61 -26 -67 -26 -10 0 -13
46 -13 195 l0 195 233 3 c127 1 248 3 267 2 l35 0 3 -118z m-698 -72 c18 -41
31 -77 29 -78 -2 -2 -23 -15 -47 -30 -23 -15 -48 -40 -55 -55 -15 -36 -25 -42
-68 -42 -25 0 -48 -9 -74 -30 l-38 -30 -43 77 -42 77 19 27 c24 33 69 52 113
47 30 -3 35 -1 40 22 9 39 38 70 81 85 22 7 43 11 46 9 3 -2 21 -37 39 -79z
m-446 -62 c11 -67 8 -83 -14 -83 -16 0 -20 7 -20 35 0 19 -4 35 -10 35 -5 0
-10 -16 -10 -35 0 -24 -5 -35 -15 -35 -10 0 -15 11 -15 35 0 24 -5 35 -15 35
-11 0 -15 -11 -15 -40 0 -33 -3 -40 -20 -40 -18 0 -20 7 -20 65 l0 65 74 0 73
0 7 -37z m1354 -5 c2 -12 -8 -23 -32 -35 -32 -15 -50 -35 -28 -32 4 1 20 1 35
0 21 -1 28 -5 25 -18 -2 -10 -11 -18 -21 -17 -9 0 -44 1 -77 2 -51 2 -60 5
-60 20 0 11 15 26 38 37 l37 20 -37 3 c-30 3 -38 7 -38 23 0 18 6 20 77 17 64
-2 78 -6 81 -20z m-1350 -124 c2 -14 -9 -28 -35 -47 l-38 -27 38 0 c34 0 38
-3 35 -22 -3 -21 -9 -23 -74 -26 -65 -3 -72 -1 -77 18 -4 16 4 27 34 47 21 14
39 28 39 30 0 3 -17 3 -37 1 -33 -3 -38 0 -41 19 -3 20 1 22 60 26 89 5 93 4
96 -19z m1142 -143 l0 -100 -270 -1 -270 0 0 100 0 100 270 0 270 0 0 -99z
m200 -71 c0 -16 -7 -20 -37 -21 -39 -1 -38 -3 10 -13 41 -10 33 -33 -15 -44
l-43 -10 43 -1 c30 -1 42 -5 42 -16 0 -12 -16 -15 -80 -15 -79 0 -80 0 -80 25
0 21 6 26 41 31 42 7 36 24 -9 24 -24 0 -38 21 -28 45 4 11 23 15 81 15 68 0
75 -2 75 -20z m-194 -126 c-13 -159 -59 -258 -165 -356 -67 -62 -132 -99 -233
-134 -141 -48 -235 -40 -379 31 -179 88 -265 189 -309 361 -20 76 -26 164 -13
177 3 4 254 7 556 7 l550 0 -7 -86z m-1101 -218 c20 -30 16 -81 -5 -81 -10 0
-15 10 -15 30 -1 17 -5 30 -10 30 -6 0 -9 -16 -7 -36 3 -29 -1 -40 -20 -53
-28 -20 -20 -20 48 0 43 12 58 13 69 4 22 -19 19 -31 -26 -95 -22 -31 -38 -59
-36 -62 3 -2 23 19 47 47 23 27 47 50 53 50 18 0 77 -63 77 -82 0 -10 -9 -23
-20 -30 -11 -7 -20 -20 -20 -29 0 -24 -27 -42 -52 -35 -35 9 -120 96 -115 117
6 23 -20 60 -38 53 -7 -3 -18 4 -25 15 -8 16 -8 21 1 21 6 0 -3 13 -20 29 -21
20 -31 38 -31 58 0 27 15 53 31 53 13 0 19 -33 8 -46 -11 -14 -5 -34 12 -34 5
0 9 14 9 31 0 17 5 39 10 50 15 27 56 24 75 -5z m1137 -134 c38 -27 46 -37 39
-50 -7 -12 -21 -16 -53 -14 l-43 2 29 -24 c26 -22 29 -46 5 -46 -5 0 -34 16
-64 36 -48 32 -53 39 -44 56 9 17 18 19 50 15 21 -3 39 -1 39 4 0 5 -3 9 -7 9
-5 0 -17 7 -27 15 -16 12 -17 17 -6 30 13 16 14 16 82 -33z m-122 -87 c55 -28
66 -86 26 -125 -35 -32 -74 -29 -108 9 -36 40 -35 65 1 102 34 33 41 35 81 14z
m-727 -90 c20 -14 37 -29 37 -34 0 -5 11 -6 25 -3 25 4 25 4 19 -57 -6 -52 -4
-61 9 -61 20 0 26 10 36 62 5 30 12 42 22 40 12 -3 56 -7 111 -11 21 -1 32
-35 19 -58 -6 -13 -5 -26 5 -43 13 -23 14 -20 12 45 -3 65 -1 70 19 73 20 3
22 -2 28 -73 4 -42 5 -78 2 -81 -3 -3 -26 -2 -52 2 -36 5 -49 12 -57 30 -14
31 -28 31 -28 -1 0 -18 -5 -25 -20 -25 -15 0 -20 7 -20 26 l0 27 -21 -28 c-18
-22 -27 -26 -52 -21 -40 8 -67 33 -67 63 l0 23 -20 -20 c-11 -11 -29 -20 -39
-20 -21 0 -91 38 -91 49 0 11 71 121 78 121 4 0 24 -11 45 -25z"/>
<path d="M1265 827 c-24 -15 -55 -47 -55 -58 0 -4 8 -12 18 -18 14 -8 15 -12
5 -22 -11 -11 -13 -10 -13 3 0 9 -7 18 -15 22 -8 3 -15 1 -15 -5 0 -6 -5 -7
-10 -4 -6 3 -13 0 -16 -9 -3 -8 -12 -12 -20 -9 -8 3 -14 0 -14 -7 0 -7 -7 -10
-15 -6 -8 3 -19 -2 -24 -11 -4 -9 -18 -17 -29 -18 -11 0 -27 -9 -37 -18 -9 -9
-25 -22 -36 -27 -10 -6 -19 -17 -19 -25 0 -8 15 -1 37 20 23 21 41 31 47 25 5
-5 17 1 28 16 11 13 24 22 29 19 16 -10 10 -41 -12 -61 -16 -15 -22 -16 -29
-5 -6 11 -10 9 -19 -7 -11 -21 -67 -46 -82 -36 -5 3 -18 -11 -30 -30 -26 -44
-44 -46 -58 -6 -5 17 -15 30 -20 30 -6 0 -11 7 -11 17 0 22 -77 92 -88 81 -6
-6 -18 1 -29 16 -15 18 -23 22 -31 14 -8 -8 -13 -7 -17 5 -9 23 -35 9 -35 -19
0 -13 -4 -24 -10 -24 -13 0 -13 37 0 45 6 3 10 13 10 21 0 8 -4 13 -9 10 -14
-9 -42 5 -34 17 4 6 -3 8 -21 3 -17 -4 -25 -3 -22 3 8 12 -17 21 -42 14 -15
-4 -20 -12 -17 -31 2 -15 5 -29 6 -32 1 -3 2 -12 3 -20 1 -8 7 -15 14 -14 6 1
26 2 42 3 19 0 30 6 30 15 0 8 5 18 10 21 6 4 10 -5 10 -20 0 -14 -4 -24 -9
-20 -5 3 -13 0 -16 -6 -4 -6 -18 -8 -31 -5 -19 5 -22 3 -19 -14 6 -30 60 -90
82 -90 7 0 13 -4 13 -8 0 -17 86 -43 150 -46 58 -3 59 -3 13 3 -65 8 -73 16
-34 35 43 23 59 20 92 -15 23 -24 27 -37 22 -57 -6 -25 -5 -26 12 -12 14 11
19 12 22 3 3 -7 9 -13 14 -13 6 0 5 8 -1 20 -13 24 -6 40 18 41 11 0 13 2 4 6
-20 8 16 43 44 43 27 0 74 -20 74 -31 0 -4 -24 -12 -52 -18 l-53 -10 65 5 c68
6 95 18 62 28 -31 10 -58 44 -44 58 8 8 19 8 41 -2 42 -17 59 -39 40 -51 -10
-7 -5 -7 15 -3 16 4 37 15 47 25 11 11 23 19 29 19 10 0 45 60 42 72 -1 4 7
12 18 18 11 6 18 15 15 21 -4 5 -3 15 2 22 18 29 22 85 6 91 -8 3 -11 10 -8
16 8 13 -5 12 -30 -3z"/>
</g>
</svg>
